<svg width="20" height="20" viewBox="0 0 20 20" fill="none" xmlns="http://www.w3.org/2000/svg">
<g id="Icon / lock">
<path id="Vector" d="M15.8333 9.16602H4.16667C3.24619 9.16602 2.5 9.91221 2.5 10.8327V16.666C2.5 17.5865 3.24619 18.3327 4.16667 18.3327H15.8333C16.7538 18.3327 17.5 17.5865 17.5 16.666V10.8327C17.5 9.91221 16.7538 9.16602 15.8333 9.16602Z" stroke="#BABABA" stroke-width="1.5" stroke-linecap="round" stroke-linejoin="round"/>
<path id="Vector_2" d="M5.8335 9.16577V5.83244C5.8335 4.72737 6.27248 3.66756 7.05388 2.88616C7.83529 2.10476 8.89509 1.66577 10.0002 1.66577C11.1052 1.66577 12.165 2.10476 12.9464 2.88616C13.7278 3.66756 14.1668 4.72737 14.1668 5.83244V9.16577" stroke="#BABABA" stroke-width="1.5" stroke-linecap="round" stroke-linejoin="round"/>
</g>
</svg>
